<?xml version="1.0" standalone="no"?><!DOCTYPE svg PUBLIC "-//W3C//DTD SVG 1.1//EN" "http://www.w3.org/Graphics/SVG/1.1/DTD/svg11.dtd"><svg t="1576479827974" class="icon" viewBox="0 0 1024 1024" version="1.1" xmlns="http://www.w3.org/2000/svg" p-id="3340" xmlns:xlink="http://www.w3.org/1999/xlink" width="200" height="200"><defs><style type="text/css"></style></defs><path d="M358.764598 716.487487c-33.751373 21.042523-69.794507 39.584944-108.1294 51.460428l-26.667751 8.333672 8.750356-21.667548c9.583723-23.750966 17.917396-50.002035 23.334282-76.461445 4.375178-21.459207 6.666938-43.126755 6.458597-63.33591-66.877721-34.793082-106.879349-78.961546-124.17172-125.213429-13.125534-35.001424-13.333876-70.836216-2.916785-105.004272 10.417091-33.959715 31.667955-66.252696 61.460834-93.545473 54.793896-50.210376 139.380671-84.378433 241.259817-84.378434 68.336114 0 133.130417 17.084028 185.632553 45.626857 37.293184 20.417497 68.544456 46.668566 90.420346 76.669786 22.084232 30.209563 34.584741 64.37762 34.584741 100.420753 0 26.667752-6.87528 54.168871-22.084232 81.878332-23.959308 43.960122-63.544252 78.336521-111.462869 102.504171-49.377009 24.792675-108.1294 38.543235-168.131841 40.418311-27.084435 20.417497-56.460631 42.501729-88.336928 62.294201z" fill="#43A047" p-id="3341"></path><path d="M505.853917 757.739166c-33.751373 21.042523-69.794507 39.584944-108.1294 51.460427l-26.667752 8.333673 8.750356-21.667549c9.583723-23.750966 17.917396-50.002035 23.334283-76.461444 4.375178-21.459207 6.666938-43.126755 6.458596-63.335911-66.877721-34.793082-106.879349-78.961546-124.171719-125.213428-13.125534-34.793082-13.542218-70.627874-2.916786-104.795931 10.417091-33.959715 31.667955-66.252696 61.460835-93.545473 54.793896-50.210376 139.380671-84.378433 241.259816-84.378433 68.336114 0 133.130417 17.084028 185.632554 45.626856 37.293184 20.417497 68.544456 46.668566 90.420346 76.669787C883.369278 400.641302 895.869786 434.809359 895.869786 470.852492c0 26.667752-6.87528 54.168871-22.084232 81.878332-23.959308 43.960122-63.544252 78.336521-111.462868 102.504171-49.377009 24.792675-108.1294 38.543235-168.131842 40.418311-27.084435 20.209156-56.460631 42.085046-88.336927 62.08586z" fill="#66BB6A" p-id="3342"></path></svg>